<svg width="16" height="16" viewBox="0 0 16 16" fill="none" xmlns="http://www.w3.org/2000/svg">
<g clip-path="url(#clip0_21_231)">
<path d="M8 6.36668C8.61133 5.74201 9.40733 5.33334 10.3333 5.33334C11.3058 5.33334 12.2384 5.71965 12.9261 6.40729C13.6137 7.09492 14 8.02755 14 9.00001V14H12.6667V9.00001C12.6667 8.38117 12.4208 7.78768 11.9832 7.35009C11.5457 6.91251 10.9522 6.66668 10.3333 6.66668C9.71449 6.66668 9.121 6.91251 8.68341 7.35009C8.24583 7.78768 8 8.38117 8 9.00001V14H6.66666V5.66668H8V6.36668ZM3.33333 4.33334C3.06811 4.33334 2.81376 4.22799 2.62622 4.04045C2.43869 3.85291 2.33333 3.59856 2.33333 3.33334C2.33333 3.06813 2.43869 2.81377 2.62622 2.62624C2.81376 2.4387 3.06811 2.33334 3.33333 2.33334C3.59854 2.33334 3.8529 2.4387 4.04044 2.62624C4.22797 2.81377 4.33333 3.06813 4.33333 3.33334C4.33333 3.59856 4.22797 3.85291 4.04044 4.04045C3.8529 4.22799 3.59854 4.33334 3.33333 4.33334ZM2.66666 5.66668H3.99999V14H2.66666V5.66668Z" fill="black" fill-opacity="0.88"/>
</g>
<defs>
<clipPath id="clip0_21_231">
<rect width="16" height="16" fill="white"/>
</clipPath>
</defs>
</svg>
